/* XPM */
static char * addEdge_xpm[] = {
"24 24 4 1",
" 	c None",
".	c #000000",
"+	c #19C3ED",
"@	c #A7A089",
"                        ",
"                        ",
"                .....   ",
"               .+++++.  ",
"               .+++++.  ",
"               .+++++.  ",
"     @@@@@@@@@@.+++++.  ",
"     @@@@@@@@@@.+++++.  ",
"     @@@@@@@@@.......   ",
"     @@@@@@@@...@@@     ",
"     @@@@@@@...@@@@     ",
"     @@@@@@...@@@@@     ",
"     @@@@@...@@@@@@     ",
"     @@@@...@@@@@@@     ",
"     @@@...@@@@@@@@     ",
"   .......@@@@@@@@@     ",
"  .+++++.@@@@@@@@@@     ",
"  .+++++.@@@@@@@@@@     ",
"  .+++++.@@@@@@@@@@     ",
"  .+++++.               ",
"  .+++++.               ",
"   .....                ",
"                        ",
"                        "};
