/* XPM */
static char * addRectNode_xpm[] = {
"24 24 4 1",
" 	c None",
".	c #A3A4AC",
"+	c #000000",
"@	c #21F75D",
"                        ",
"                        ",
"                        ",
"                        ",
"                        ",
"   ..................   ",
"   .++++++++++++++++.   ",
"   .+@@@@@@@@@@@@@@+.   ",
"   .+@@@@@@@@@@@@@@+.   ",
"   .+@@@@@@@@@@@@@@+.   ",
"   .+@@@@@@@@@@@@@@+.   ",
"   .+@@@@@@@@@@@@@@+.   ",
"   .+@@@@@@@@@@@@@@+.   ",
"   .+@@@@@@@@@@@@@@+.   ",
"   .+@@@@@@@@@@@@@@+.   ",
"   .+@@@@@@@@@@@@@@+.   ",
"   .+@@@@@@@@@@@@@@+.   ",
"   .++++++++++++++++.   ",
"   ..................   ",
"                        ",
"                        ",
"                        ",
"                        ",
"                        "};
