/* XPM */
static char * checkDiagram_xpm[] = {
"24 24 6 1",
" 	c None",
".	c #000000",
"+	c #001EFF",
"@	c #A7A089",
"#	c #FF5753",
"$	c #21F75D",
"                        ",
"                        ",
"  ..........            ",
"  .++++++++.@@@@@@@@@@  ",
"  .++++++++.@@@@@@@@@@  ",
"  .++++++++.@@@@@@@@@@  ",
"  .++++++++.@@@@@@@###  ",
"  .++++++++.@@@@@@@###  ",
"  .++++++++.@@@@@@@###  ",
"  .++++++++.@@@@@@###@  ",
"  .++++++++.@@@@@@###@  ",
"  ................###@  ",
"   @@@@@@..$$$$$$###@@  ",
"   @@@@@.$$$$$$$$###.@  ",
"   @@@@@.$$$$$$$####.@  ",
"   @@@@.$$$$$$$$###$$.  ",
"   @@@@###$$$$$####$$.  ",
"   @@@@###$$$$$###$$$.  ",
"   @@@@####$$#####$$$.  ",
"   @@@@@########$$$$.@  ",
"   @@@@@########$$$$.@  ",
"   @@@@@@#####$$$$..@@  ",
"         ####.....      ",
"                        "};
