/* XPM */
static char * cloneAction_xpm[] = {
"24 24 4 1",
" 	c None",
".	c #6C6C6D",
"+	c #8E8F96",
"@	c #21F75D",
"                        ",
"                        ",
"  ....................  ",
"  ....................  ",
"  ..++++++++++++++++..  ",
"  ..+++@@@@@@+++++++..  ",
"  ..++@@++++@@++++++..  ",
"  ..+@@++++@@@@@@+++..  ",
"  ..+@@+++@@++++@@++..  ",
"  ..+@@++@@++++++@@+..  ",
"  ..+@@++@@++++++@@+..  ",
"  ..+@@++@@++++++@@+..  ",
"  ..+@@++@@++++++@@+..  ",
"  ..+@@++@@++++++@@+..  ",
"  ..+@@++@@++++++@@+..  ",
"  ..+@@++@@++++++@@+..  ",
"  ..++@@+@@++++++@@+..  ",
"  ..+++@@@@++++++@@+..  ",
"  ..++++ +@@++++@@++..  ",
"  ..+++++++@@@@@@+++..  ",
"  ..++++++++++++++++..  ",
"  ....................  ",
"  ....................  ",
"                        "};
