/* XPM */
static char * createProblem_xpm[] = {
"24 24 5 1",
" 	c None",
".	c #6C6C6D",
"+	c #FFFC13",
"@	c #8E8F96",
"#	c #21F75D",
"                        ",
" ..................+.+  ",
" ...................+.  ",
" ..@@@@@@@@@@@@@@@@+.+  ",
" ..@@@@@@@@@@@@@@@@@..  ",
" ..@@@@@@@@@@@@@@@@@..  ",
" ..@@@@@######@@@@@@..  ",
" ..@@@@@##@@@##@@@@@..  ",
" ..@@@@@##@@@@##@@@@..  ",
" ..@@@@@##@@@@##@@@@..  ",
" +.+@@@@##@@@@##@@@@..  ",
" .+@@@@@##@@@@##@@@@..  ",
" +.+@@@@##@@@##@@@@@..  ",
" ..@@@@@######@@@@@@..  ",
" ..@@@@@##@@@@@@@@@@..  ",
" ..@@@@@##@@@@@@@@@@..  ",
" ..@@@@@##@@@@@@+@@@+.  ",
" ..@@@@@##@@@@@@@+@+..  ",
" ..@@@@@@@@@@@@@@@+@..  ",
" ..@@@@@@@@@@@@@@+@+..  ",
" ..@@@@@@@@@@@@@+@@@+.  ",
" .....................  ",
" .....................  ",
"                        "};
