/* XPM */
static char * deleteAction_xpm[] = {
"24 24 5 1",
" 	c None",
".	c #6C6C6D",
"+	c #8E8F96",
"@	c #FF0000",
"#	c #21F75D",
"                        ",
"                        ",
"  ....................  ",
"  ....................  ",
"  ..++++++++++++++++..  ",
"  ..+@++++++++++++@+..  ",
"  ..+@@++######++@@+..  ",
"  ..++@@##++++##@@++..  ",
"  ..+++@@++++++@@+++..  ",
"  ..+++#@@++++@@#+++..  ",
"  ..+++##@@++@@##+++..  ",
"  ..+++##+@@@@+##+++..  ",
"  ..+++##++@@++##+++..  ",
"  ..+++##+@@@@+##+++..  ",
"  ..+++##@@++@@##+++..  ",
"  ..+++#@@++++@@#+++..  ",
"  ..+++@@++++++@@+++..  ",
"  ..++@@##++++##@@++..  ",
"  ..+@@++######++@@+..  ",
"  ..+@++++++++++++@+..  ",
"  ..++++++++++++++++..  ",
"  ....................  ",
"  ....................  ",
"                        "};
