/* XPM */
static char * delete_xpm[] = {
"24 24 5 1",
" 	c None",
".	c #A7A089",
"+	c #ED1919",
"@	c #000000",
"#	c #353D79",
"                        ",
"                        ",
"                        ",
"   .................    ",
"   .................    ",
"   .................    ",
"   ...++.........++.    ",
"   ...+++@@@@@@@+++.    ",
"   ....+++#####+++..    ",
"   ....@+++###+++...    ",
"   ....@#+++#+++@...    ",
"   ....@##+++++#@...    ",
"   ....@###+++##@...    ",
"   ....@##+++++#@...    ",
"   ....@#+++#+++@...    ",
"   ....@+++###+++...    ",
"   ....+++@@@@@+++..    ",
"   ...+++.......+++.    ",
"   ...++.........++.    ",
"   .................    ",
"                        ",
"                        ",
"                        ",
"                        "};
