/* XPM */
static char * savePNG_xpm[] = {
"24 24 5 1",
" 	c None",
".	c #000000",
"+	c #D6D6D6",
"@	c #53F85A",
"#	c #53B4F8",
"                        ",
"                        ",
"  ....................  ",
"  .++++++++++++++++++.  ",
"  .++++++++++++++++++.  ",
"  .++++++++++++++++++.  ",
"  .+++@@@@@++++++++++.  ",
"  .+++@@@@@++++++++++.  ",
"  .+++@@@@@++++++++++.  ",
"  .+++@@@@.+++++.++++.  ",
"  .+++@@@.........#++.  ",
"  .+++++++.+++++.##++.  ",
"  .+++++++++++++###++.  ",
"  .++++++++++++++++++.  ",
"  .++++++++++++++++++.  ",
"  .+++..++.++.++..+++.  ",
"  .+++.+.+..+.+.+++++.  ",
"  .+++..++.+..+.+.+++.  ",
"  .+.+.+++.++.+.++.++.  ",
"  .+++.+++.++.++..+++.  ",
"  .++++++++++++++++++.  ",
"  ....................  ",
"                        ",
"                        "};
